<?xml version="1.0" encoding="UTF-8"?>
<svg width="287.466667px" height="199.066667px" viewBox="0 0 287.466667 199.066667" version="1.1" xmlns="http://www.w3.org/2000/svg" xmlns:xlink="http://www.w3.org/1999/xlink">
    <title>illustration / empty-state / moon</title>
    <defs>
        <path d="M0.582549333,2.683136 C0.0581546667,3.48125867 -0.122325333,4.46587733 0.0822186667,5.40437333 L0.0822186667,5.40437333 C0.654741333,8.214848 4.35157333,10.6072107 10.440768,14.5888 L10.440768,14.5888 C11.887616,15.5383253 13.4237013,16.5429973 15.030976,17.6379093 L15.030976,17.6379093 C16.637248,18.733824 18.13824,19.774592 19.6021333,20.7963093 L19.6021333,20.7963093 C26.031232,25.270208 29.76416,27.790912 32.5144747,27.790912 L32.5144747,27.790912 C32.775168,27.817984 33.0388693,27.817984 33.2995627,27.790912 L33.2995627,27.790912 C34.1809067,27.6184533 34.9599787,27.093056 35.461312,26.3300267 L35.461312,26.3300267 C38.3890987,21.765888 30.7106773,13.548032 22.316352,7.905024 L22.316352,7.905024 C16.432704,3.95050667 9.56544,0.740970667 4.97021867,0.739968 L4.97021867,0.739968 C3.01000533,0.739968 1.46289067,1.32352 0.582549333,2.683136 L0.582549333,2.683136 Z M21.6194987,17.7842987 C20.1375573,16.7615787 18.6024747,15.6847147 17.013248,14.606848 L17.013248,14.606848 C15.3879253,13.5109333 13.815744,12.489216 12.350848,11.538688 L12.350848,11.538688 C8.51163733,9.01898667 3.72490667,5.89668267 3.56548267,4.728576 L3.56548267,4.728576 C3.70786133,4.47189333 4.172096,4.34455467 4.88699733,4.34455467 L4.88699733,4.34455467 C7.387648,4.34455467 13.0657493,5.98792533 20.33408,10.900992 L20.33408,10.900992 C29.4784,17.0904533 32.9606613,22.9159467 32.5144747,24.175296 L32.5144747,24.175296 C32.489408,24.1773013 32.4633387,24.178304 32.4362667,24.178304 L32.4362667,24.178304 C30.81696,24.178304 25.5188693,20.478464 21.6194987,17.7842987 L21.6194987,17.7842987 Z" id="path-1"></path>
    </defs>
    <g id="10929---Zero-Search-Reults-Metro-Markets" stroke="none" stroke-width="1" fill="none" fill-rule="evenodd">
        <g id="10929.v2.EmptyState.02-search-result-with-sheet" transform="translate(-42.8, -289.5333)">
            <g id="illustration-/-empty-state-/-moon" transform="translate(42.8, 291.5333)">
                <g id="planet" transform="translate(30.8, 107.3333)">
                    <path d="M224.933382,87.7333333 C212.496541,37.2744164 167.249574,0 112.933382,0 C58.6228777,0 12.908136,37.2914374 0.466079562,87.7333333 L224.933382,87.7333333 Z" id="Path" fill="#E6E8EB" opacity="0.329999983"></path>
                    <path d="M79.2591974,4.95732276 C104.854469,16.9732958 123.2,49.4967623 123.2,87.7333333 L0.466079562,87.7333333 C10.1708836,48.3886545 40.1187893,17.0447146 78.5993137,5.15766357 Z" id="Combined-Shape" fill="#FFFFFF"></path>
                    <path d="M112.933382,0 C167.252799,0 212.499718,37.2698668 224.933382,87.7333333 L206.266715,87.7333333 C194.544512,40.2006158 153.720385,4.36841422 103.598789,0.370587808 C106.676426,0.125033419 109.789969,0 112.933382,0 Z" id="Path" fill="#E6E8EB"></path>
                    <path d="M225.400048,87.7333333 C213.006376,37.2126781 167.293345,0 112.933382,0 C58.5216634,0 12.8081882,37.1485331 0.466715138,87.7333333 L225.400048,87.7333333 Z" id="Path" stroke="#32425B" stroke-width="4" stroke-linecap="round" stroke-linejoin="round"></path>
                    <g id="Group-30" transform="translate(147.8134, 19.5054)">
                        <mask id="mask-2" fill="white">
                            <use xlink:href="#path-1"></use>
                        </mask>
                        <g id="Clip-29"></g>
                    </g>
                    <ellipse id="Oval" stroke="#E6E8EB" stroke-width="4" opacity="0.5" transform="translate(35.4667, 59.7333) rotate(-50) translate(-35.4667, -59.7333)" cx="35.4667151" cy="59.7333333" rx="11.2" ry="7.46666667"></ellipse>
                    <ellipse id="Oval" stroke="#E6E8EB" stroke-width="4" transform="translate(146.5334, 39.2) rotate(20) translate(-146.5334, -39.2)" cx="146.533382" cy="39.2" rx="22.4" ry="14.9333333"></ellipse>
                    <ellipse id="Oval" stroke="#E6E8EB" stroke-width="4" transform="translate(183.8667, 68.1333) rotate(50) translate(-183.8667, -68.1333)" cx="183.866715" cy="68.1333333" rx="11.2" ry="7.46666667"></ellipse>
                    <ellipse id="Oval" stroke="#E6E8EB" stroke-width="4" opacity="0.5" transform="translate(60.6667, 33.6) rotate(-20) translate(-60.6667, -33.6)" cx="60.6667151" cy="33.6" rx="7.46666667" ry="3.73333333"></ellipse>
                </g>
                <g id="base-/-4px-/-floor-/-dark" transform="translate(0, 193.2)">
                    <rect id="Rectangle" fill="#E6E8EB" x="0" y="0" width="287.466667" height="3.73333333" rx="1.86666667"></rect>
                    <line x1="129.733333" y1="1.86666667" x2="14" y2="1.86666667" id="Path-38" stroke="#99A1AD" stroke-width="4" stroke-linecap="round" stroke-linejoin="round"></line>
                    <line x1="6.53333333" y1="1.86666667" x2="5.6" y2="1.86666667" id="Path-38" stroke="#99A1AD" stroke-width="4" stroke-linecap="round" stroke-linejoin="round"></line>
                    <line x1="138.133333" y1="1.86666667" x2="137.2" y2="1.86666667" id="Path-38" stroke="#99A1AD" stroke-width="4" stroke-linecap="round" stroke-linejoin="round"></line>
                    <line x1="281.866667" y1="1.86666667" x2="145.6" y2="1.86666667" id="Path-38" stroke="#99A1AD" stroke-width="4" stroke-linecap="round" stroke-linejoin="round"></line>
                </g>
                <g id="flagpole" transform="translate(143.2667, 32.6667)">
                    <line x1="0.466666667" y1="11.2" x2="0.466666667" y2="82.1333333" id="Stroke-41" stroke="#32425B" stroke-width="4" stroke-linecap="round" stroke-linejoin="round"></line>
                    <path d="M45.2666667,41.0666667 C40.2888889,39.8222222 32.8222222,40.4444444 22.8666667,42.9333333 C12.9111111,45.4222222 5.44444444,44.8 0.466666667,41.0666667 L0.466666667,11.2 C5.44444444,14.9333333 12.9111111,15.5555556 22.8666667,13.0666667 C32.8222222,10.5777778 40.2888889,9.95555556 45.2666667,11.2 L37.8,26.1333333 L45.2666667,41.0666667 Z" id="Stroke-47" stroke="#32425B" stroke-width="4" fill="#FFFFFF" stroke-linecap="round" stroke-linejoin="round"></path>
                    <g id="base-/-logo-/-letter-metro-/-dark" transform="translate(11.4, 21)" fill="#32425B">
                        <polygon id="M" points="10.0967041 14 13 5.20636351 13 14 17.3333333 14 17.3333333 0 11.4835207 0 8.66666667 7 5.85006246 0 -1.77635684e-15 0 -1.77635684e-15 14 4.33358317 14 4.33358317 5.20636351 7.25836456 14"></polygon>
                    </g>
                </g>
                <g id="star" transform="translate(27.0667, 75.6)" stroke="#CCD0D6" stroke-linecap="round" stroke-linejoin="round" stroke-width="4">
                    <line x1="9.33333333" y1="0" x2="9.33333333" y2="3.73333333" id="Path-2"></line>
                    <line x1="9.33333333" y1="14.9333333" x2="9.33333333" y2="18.6666667" id="Path-2"></line>
                    <line x1="14.9333333" y1="9.33333333" x2="18.6666667" y2="9.33333333" id="Path-2"></line>
                    <line x1="0" y1="9.33333333" x2="3.73333333" y2="9.33333333" id="Path-2"></line>
                </g>
                <g id="star" transform="translate(232.4, 56)" stroke="#CCD0D6" stroke-linecap="round" stroke-linejoin="round" stroke-width="4">
                    <line x1="9.33333333" y1="0" x2="9.33333333" y2="3.73333333" id="Path-2"></line>
                    <line x1="9.33333333" y1="14.9333333" x2="9.33333333" y2="18.6666667" id="Path-2"></line>
                    <line x1="14.9333333" y1="9.33333333" x2="18.6666667" y2="9.33333333" id="Path-2"></line>
                    <line x1="0" y1="9.33333333" x2="3.73333333" y2="9.33333333" id="Path-2"></line>
                </g>
                <g id="star" transform="translate(81.2, 0)" stroke="#CCD0D6" stroke-linecap="round" stroke-linejoin="round" stroke-width="4">
                    <line x1="13.0666667" y1="0" x2="13.0666667" y2="7.46666667" id="Path-2"></line>
                    <line x1="13.0666667" y1="18.6666667" x2="13.0666667" y2="26.1333333" id="Path-2"></line>
                    <line x1="18.6666667" y1="13.0666667" x2="26.1333333" y2="13.0666667" id="Path-2"></line>
                    <line x1="0" y1="13.0666667" x2="7.46666667" y2="13.0666667" id="Path-2"></line>
                </g>
            </g>
        </g>
    </g>
</svg>